<svg width="92" height="50" viewBox="0 0 92 50" fill="none" xmlns="http://www.w3.org/2000/svg">
    <path d="M0 49.876V39.9724H2.69407V43.7401L5.68057 39.9724H8.71825L5.15418 44.4089L8.96682 49.876H5.87431L3.43978 46.2361L2.69407 47.0182V49.876H0Z" fill="#282828"/>
    <path d="M12.9184 39.9724H10.2244V49.8796H12.9184V39.9724Z" fill="#282828"/>
    <path d="M17.9885 45.0082V49.876H15.2944V39.9724H17.3963L21.3332 45.0082V39.9724H24.0273V49.876H21.8852L17.9885 45.0082Z" fill="#282828"/>
    <path d="M33.0636 49.0538C32.3617 49.6495 31.5575 49.9455 30.6437 49.9455C30.0076 49.9455 29.4008 49.8322 28.8196 49.6056C28.2384 49.3791 27.7339 49.0465 27.2989 48.608C26.8639 48.1694 26.5203 47.6359 26.2608 47.0037C26.0012 46.3714 25.8733 45.6515 25.8733 44.8402C25.8733 44.1422 26.0012 43.4954 26.2608 42.8961C26.5203 42.2967 26.8749 41.7742 27.3245 41.332C27.7778 40.8898 28.3078 40.5426 28.9219 40.2868C29.5361 40.031 30.194 39.9031 30.9032 39.9031C31.3455 39.9031 31.7695 39.9506 32.1753 40.0493C32.581 40.1479 32.9576 40.2904 33.3012 40.4805C33.6448 40.6705 33.9555 40.8971 34.2333 41.1639C34.5111 41.427 34.7341 41.7303 34.9096 42.0629L32.9064 43.6123C32.7126 43.2213 32.4239 42.907 32.0364 42.6695C31.6489 42.432 31.2395 42.315 30.8045 42.315C30.4828 42.315 30.1867 42.3808 29.9199 42.5087C29.653 42.6403 29.4227 42.8193 29.229 43.0532C29.0353 43.2871 28.8817 43.5648 28.7721 43.8828C28.6624 44.2044 28.6076 44.5552 28.6076 44.9352C28.6076 45.3153 28.6624 45.6808 28.7721 45.995C28.8817 46.3093 29.0353 46.5834 29.2363 46.81C29.4337 47.0402 29.6713 47.2156 29.9491 47.3399C30.2269 47.4641 30.534 47.5299 30.8739 47.5299C31.6562 47.5299 32.3471 47.2047 32.9466 46.5542H31.2468V44.599H35.2824V49.8724H33.0562V49.0502L33.0636 49.0538Z" fill="#282828"/>
    <path d="M43.2475 43.2101C42.9697 43.042 42.6846 42.8958 42.3921 42.7642C42.1435 42.6509 41.8657 42.5486 41.555 42.45C41.2443 42.3513 40.9446 42.3038 40.6485 42.3038C40.4109 42.3038 40.2171 42.3403 40.0746 42.4171C39.932 42.4901 39.8589 42.6181 39.8589 42.7935C39.8589 42.925 39.8991 43.031 39.9832 43.1151C40.0673 43.1991 40.1842 43.2759 40.3414 43.3453C40.4986 43.4147 40.6887 43.4842 40.9153 43.5463C41.142 43.6121 41.3978 43.6888 41.683 43.7838C42.1326 43.9227 42.542 44.0762 42.9075 44.2443C43.2694 44.4124 43.5838 44.6097 43.8397 44.8363C44.0956 45.0629 44.2966 45.3406 44.4355 45.6659C44.5744 45.9911 44.6439 46.3858 44.6439 46.8499C44.6439 47.4456 44.5379 47.9462 44.3185 48.3482C44.1029 48.7539 43.8177 49.0755 43.4632 49.3167C43.1086 49.5578 42.7065 49.7333 42.2605 49.8392C41.8146 49.9452 41.3649 50 40.9153 50C40.5571 50 40.1879 49.9708 39.8114 49.916C39.4349 49.8612 39.0583 49.7808 38.6855 49.6784C38.3126 49.5761 37.9544 49.4555 37.6071 49.3167C37.2599 49.1778 36.9418 49.0206 36.6458 48.8416L37.8082 46.4552C38.1299 46.6599 38.4662 46.8426 38.8171 46.9997C39.1132 47.1386 39.4458 47.2629 39.8187 47.3761C40.1915 47.4894 40.5717 47.5442 40.9592 47.5442C41.2553 47.5442 41.46 47.504 41.5733 47.4273C41.6866 47.3469 41.7451 47.2446 41.7451 47.113C41.7451 46.9742 41.6866 46.8536 41.5733 46.7585C41.4563 46.6599 41.2991 46.5758 41.0981 46.4991C40.8934 46.426 40.6631 46.3492 40.3999 46.2762C40.1367 46.1994 39.8589 46.1117 39.5628 46.0094C39.1315 45.8595 38.7549 45.6988 38.4442 45.527C38.1299 45.3552 37.874 45.1615 37.6693 44.9423C37.4646 44.723 37.3184 44.4745 37.2197 44.1968C37.1246 43.919 37.0734 43.5974 37.0734 43.2357C37.0734 42.6875 37.1721 42.2014 37.3695 41.7848C37.5669 41.3646 37.8374 41.0174 38.1774 40.7397C38.5173 40.4619 38.9085 40.25 39.3435 40.1038C39.7821 39.9613 40.2427 39.8882 40.7325 39.8882C41.0908 39.8882 41.4417 39.9247 41.7817 39.9942C42.1216 40.0636 42.4506 40.1513 42.7686 40.2573C43.0867 40.3633 43.3827 40.4802 43.6606 40.6081C43.9384 40.736 44.1869 40.853 44.4063 40.9626L43.2438 43.2101H43.2475Z" fill="#282828"/>
    <path d="M55.2007 39.9724V49.876H52.5067V45.9986H49.2168V49.876H46.5227V39.9724H49.2168V43.6269H52.5067V39.9724H55.2007Z" fill="#282828"/>
    <path d="M62.2192 46.1227L61.3492 43.053L60.439 46.1227H62.2229H62.2192ZM60.1173 39.9686H62.5774L65.977 49.8758H63.2427L62.6506 47.9353H60.0406L59.4593 49.8758H56.7104L60.1246 39.9686H60.1173Z" fill="#282828"/>
    <path d="M71.3945 47.5481C71.7089 47.5481 71.9757 47.4786 72.1951 47.3398C72.418 47.2009 72.5972 47.0182 72.7324 46.788C72.8713 46.5614 72.9737 46.2983 73.0358 45.9986C73.1016 45.7026 73.1309 45.3883 73.1309 45.0631V39.9724H75.8249V45.0631C75.8249 45.7501 75.7372 46.3969 75.5617 46.9963C75.3863 47.5956 75.1158 48.1145 74.7466 48.5531C74.3774 48.9916 73.9168 49.3351 73.3575 49.5873C72.8019 49.8394 72.1439 49.9637 71.3872 49.9637C70.6305 49.9637 69.9323 49.8321 69.3767 49.5653C68.8211 49.2986 68.3605 48.9441 68.0023 48.4982C67.644 48.0524 67.3808 47.5335 67.2163 46.9414C67.0519 46.3494 66.9678 45.7245 66.9678 45.0631V39.9724H69.6618V45.0631C69.6618 45.3883 69.6947 45.7026 69.7569 46.0059C69.8227 46.3092 69.9214 46.5723 70.0603 46.8026C70.1992 47.0328 70.3747 47.2119 70.5903 47.3471C70.806 47.4823 71.0728 47.5481 71.3836 47.5481" fill="#282828"/>
    <path d="M84.0095 43.2101C83.7316 43.042 83.4465 42.8958 83.1541 42.7642C82.9055 42.6509 82.6277 42.5486 82.317 42.45C82.0063 42.3513 81.7065 42.3038 81.4104 42.3038C81.1728 42.3038 80.9791 42.3403 80.8365 42.4171C80.694 42.4901 80.6209 42.6181 80.6209 42.7935C80.6209 42.925 80.6611 43.031 80.7451 43.1151C80.8292 43.1991 80.9462 43.2759 81.1034 43.3453C81.2606 43.4147 81.4506 43.4842 81.6773 43.5463C81.9039 43.6121 82.1598 43.6888 82.4449 43.7838C82.8945 43.9227 83.304 44.0762 83.6695 44.2443C84.0314 44.4124 84.3458 44.6097 84.6016 44.8363C84.8575 45.0629 85.0586 45.3406 85.1975 45.6659C85.3364 45.9911 85.4058 46.3858 85.4058 46.8499C85.4058 47.4456 85.2998 47.9462 85.0805 48.3482C84.8648 48.7539 84.5797 49.0755 84.2251 49.3167C83.8706 49.5578 83.4684 49.7333 83.0225 49.8392C82.5765 49.9452 82.1269 50 81.6773 50C81.319 50 80.9498 49.9708 80.5733 49.916C80.1968 49.8612 79.8203 49.7808 79.4475 49.6784C79.0746 49.5761 78.7164 49.4555 78.3691 49.3167C78.0255 49.1778 77.7038 49.0206 77.4077 48.8416L78.5665 46.4552C78.8882 46.6599 79.2245 46.8426 79.5754 46.9997C79.8715 47.1386 80.2041 47.2629 80.577 47.3761C80.9498 47.4894 81.33 47.5442 81.7175 47.5442C82.0136 47.5442 82.2183 47.504 82.3316 47.4273C82.4449 47.3469 82.5034 47.2446 82.5034 47.113C82.5034 46.9742 82.4449 46.8536 82.3316 46.7585C82.2146 46.6599 82.0574 46.5758 81.8564 46.4991C81.6517 46.426 81.4214 46.3492 81.1582 46.2762C80.895 46.1994 80.6172 46.1117 80.3211 46.0094C79.8898 45.8595 79.5133 45.6988 79.2025 45.527C78.8882 45.3552 78.6323 45.1615 78.4276 44.9423C78.2265 44.723 78.0767 44.4745 77.978 44.1968C77.8793 43.919 77.8317 43.5974 77.8317 43.2357C77.8317 42.6875 77.9304 42.2014 78.1278 41.7848C78.3252 41.3646 78.5957 41.0174 78.9357 40.7397C79.2757 40.4619 79.6668 40.25 80.1018 40.1038C80.5404 39.9613 81.001 39.8882 81.4909 39.8882C81.8491 39.8882 82.2 39.9247 82.54 39.9942C82.8799 40.0636 83.2089 40.1513 83.5269 40.2573C83.845 40.3633 84.1411 40.4802 84.4189 40.6081C84.6967 40.736 84.9453 40.853 85.1646 40.9626L84.0058 43.2101H84.0095Z" fill="#282828"/>
    <path d="M85.4059 35.2215L42.5348 0L30.947 9.56368L30.958 9.57099L0 35.1667H23.1755L42.564 19.0908L62.2267 35.2215H85.4059Z" fill="#282828"/>
    <path d="M89.8107 41.8398V41.8325C89.8107 41.5694 89.6206 41.4269 89.3026 41.4269H88.6775V42.2491H89.3062C89.6133 42.2491 89.8107 42.0883 89.8107 41.8398Z" fill="#282828"/>
    <path d="M89.8181 43.4844L89.2149 42.6292H88.6776V43.4844H88.2462V41.0359H89.3392C89.6463 41.0359 89.8875 41.1272 90.0447 41.2807C90.1727 41.4123 90.2458 41.595 90.2458 41.8106V41.8179C90.2458 42.2199 90.0045 42.4611 89.6645 42.5598L90.3262 43.488H89.8144L89.8181 43.4844ZM89.1162 39.9834C87.8624 39.9834 86.8462 40.9993 86.8462 42.2528C86.8462 43.5063 87.8624 44.5222 89.1162 44.5222C90.37 44.5222 91.3863 43.5063 91.3863 42.2528C91.3863 40.9993 90.37 39.9834 89.1162 39.9834Z" fill="#282828"/>
</svg>
