<svg width="92" height="50" viewBox="0 0 92 50" fill="none" xmlns="http://www.w3.org/2000/svg">
    <path d="M0 49.876V39.9724H2.69407V43.7401L5.68057 39.9724H8.71825L5.15418 44.4089L8.96682 49.876H5.87431L3.43978 46.2361L2.69407 47.0182V49.876H0Z" fill="white"/>
    <path d="M12.9187 39.9722H10.2246V49.8794H12.9187V39.9722Z" fill="white"/>
    <path d="M17.989 45.008V49.8757H15.2949V39.9722H17.3968L21.3337 45.008V39.9722H24.0278V49.8757H21.8857L17.989 45.008Z" fill="white"/>
    <path d="M33.0633 49.0536C32.3615 49.6492 31.5573 49.9452 30.6434 49.9452C30.0074 49.9452 29.4006 49.832 28.8193 49.6054C28.2381 49.3788 27.7337 49.0463 27.2987 48.6077C26.8637 48.1692 26.5201 47.6356 26.2605 47.0034C26.001 46.3712 25.873 45.6513 25.873 44.84C25.873 44.142 26.001 43.4951 26.2605 42.8958C26.5201 42.2965 26.8746 41.7739 27.3243 41.3317C27.7775 40.8895 28.3076 40.5424 28.9217 40.2865C29.5358 40.0307 30.1938 39.9028 30.9029 39.9028C31.3453 39.9028 31.7693 39.9503 32.175 40.049C32.5808 40.1477 32.9573 40.2902 33.3009 40.4802C33.6445 40.6703 33.9552 40.8968 34.2331 41.1636C34.5109 41.4267 34.7339 41.7301 34.9093 42.0626L32.9061 43.6121C32.7124 43.2211 32.4236 42.9068 32.0361 42.6692C31.6487 42.4317 31.2392 42.3148 30.8042 42.3148C30.4826 42.3148 30.1865 42.3805 29.9196 42.5085C29.6528 42.64 29.4225 42.8191 29.2287 43.053C29.035 43.2868 28.8815 43.5646 28.7718 43.8825C28.6622 44.2041 28.6073 44.5549 28.6073 44.935C28.6073 45.3151 28.6622 45.6805 28.7718 45.9948C28.8815 46.3091 29.035 46.5832 29.2361 46.8097C29.4335 47.04 29.6711 47.2154 29.9489 47.3396C30.2267 47.4639 30.5337 47.5297 30.8737 47.5297C31.656 47.5297 32.3468 47.2044 32.9463 46.5539H31.2466V44.5988H35.2822V49.8722H33.056V49.0499L33.0633 49.0536Z" fill="white"/>
    <path d="M43.2472 43.2101C42.9694 43.042 42.6843 42.8958 42.3919 42.7642C42.1433 42.6509 41.8655 42.5486 41.5548 42.45C41.2441 42.3513 40.9443 42.3038 40.6482 42.3038C40.4106 42.3038 40.2169 42.3403 40.0743 42.4171C39.9318 42.4901 39.8586 42.6181 39.8586 42.7935C39.8586 42.925 39.8989 43.031 39.9829 43.1151C40.067 43.1991 40.184 43.2759 40.3412 43.3453C40.4984 43.4147 40.6884 43.4842 40.9151 43.5463C41.1417 43.6121 41.3976 43.6888 41.6827 43.7838C42.1323 43.9227 42.5417 44.0762 42.9073 44.2443C43.2692 44.4124 43.5835 44.6097 43.8394 44.8363C44.0953 45.0629 44.2964 45.3406 44.4353 45.6659C44.5742 45.9911 44.6436 46.3858 44.6436 46.8499C44.6436 47.4456 44.5376 47.9462 44.3183 48.3482C44.1026 48.7539 43.8175 49.0755 43.4629 49.3167C43.1083 49.5578 42.7062 49.7333 42.2603 49.8392C41.8143 49.9452 41.3647 50 40.9151 50C40.5568 50 40.1876 49.9708 39.8111 49.916C39.4346 49.8612 39.0581 49.7808 38.6852 49.6784C38.3124 49.5761 37.9542 49.4555 37.6069 49.3167C37.2596 49.1778 36.9416 49.0206 36.6455 48.8416L37.8079 46.4552C38.1296 46.6599 38.4659 46.8426 38.8168 46.9997C39.1129 47.1386 39.4456 47.2629 39.8184 47.3761C40.1913 47.4894 40.5715 47.5442 40.9589 47.5442C41.255 47.5442 41.4597 47.504 41.5731 47.4273C41.6864 47.3469 41.7449 47.2446 41.7449 47.113C41.7449 46.9742 41.6864 46.8536 41.5731 46.7585C41.4561 46.6599 41.2989 46.5758 41.0978 46.4991C40.8931 46.426 40.6628 46.3492 40.3997 46.2762C40.1365 46.1994 39.8586 46.1117 39.5626 46.0094C39.1312 45.8595 38.7547 45.6988 38.444 45.527C38.1296 45.3552 37.8737 45.1615 37.669 44.9423C37.4643 44.723 37.3181 44.4745 37.2194 44.1968C37.1244 43.919 37.0732 43.5974 37.0732 43.2357C37.0732 42.6875 37.1719 42.2014 37.3693 41.7848C37.5667 41.3646 37.8372 41.0174 38.1771 40.7397C38.5171 40.4619 38.9082 40.25 39.3432 40.1038C39.7819 39.9613 40.2425 39.8882 40.7323 39.8882C41.0905 39.8882 41.4415 39.9247 41.7814 39.9942C42.1214 40.0636 42.4504 40.1513 42.7684 40.2573C43.0864 40.3633 43.3825 40.4802 43.6603 40.6081C43.9381 40.736 44.1867 40.853 44.406 40.9626L43.2436 43.2101H43.2472Z" fill="white"/>
    <path d="M55.2005 39.9722V49.8757H52.5064V45.9984H49.2165V49.8757H46.5225V39.9722H49.2165V43.6266H52.5064V39.9722H55.2005Z" fill="white"/>
    <path d="M62.2197 46.1228L61.3497 43.0531L60.4395 46.1228H62.2234H62.2197ZM60.1178 39.9688H62.5779L65.9775 49.8759H63.2432L62.651 47.9354H60.0411L59.4598 49.8759H56.7109L60.1251 39.9688H60.1178Z" fill="white"/>
    <path d="M71.3945 47.5481C71.7089 47.5481 71.9757 47.4786 72.1951 47.3398C72.418 47.2009 72.5972 47.0182 72.7324 46.788C72.8713 46.5614 72.9737 46.2983 73.0358 45.9986C73.1016 45.7026 73.1309 45.3883 73.1309 45.0631V39.9724H75.8249V45.0631C75.8249 45.7501 75.7372 46.3969 75.5617 46.9963C75.3863 47.5956 75.1158 48.1145 74.7466 48.5531C74.3774 48.9916 73.9168 49.3351 73.3575 49.5873C72.8019 49.8394 72.1439 49.9637 71.3872 49.9637C70.6305 49.9637 69.9323 49.8321 69.3767 49.5653C68.8211 49.2986 68.3605 48.9441 68.0023 48.4982C67.644 48.0524 67.3808 47.5335 67.2163 46.9414C67.0519 46.3494 66.9678 45.7245 66.9678 45.0631V39.9724H69.6618V45.0631C69.6618 45.3883 69.6947 45.7026 69.7569 46.0059C69.8227 46.3092 69.9214 46.5723 70.0603 46.8026C70.1992 47.0328 70.3747 47.2119 70.5903 47.3471C70.806 47.4823 71.0728 47.5481 71.3836 47.5481" fill="white"/>
    <path d="M84.0099 43.2101C83.7321 43.042 83.447 42.8958 83.1546 42.7642C82.906 42.6509 82.6282 42.5486 82.3175 42.45C82.0068 42.3513 81.707 42.3038 81.4109 42.3038C81.1733 42.3038 80.9796 42.3403 80.837 42.4171C80.6945 42.4901 80.6213 42.6181 80.6213 42.7935C80.6213 42.925 80.6616 43.031 80.7456 43.1151C80.8297 43.1991 80.9467 43.2759 81.1039 43.3453C81.261 43.4147 81.4511 43.4842 81.6778 43.5463C81.9044 43.6121 82.1603 43.6888 82.4454 43.7838C82.895 43.9227 83.3044 44.0762 83.67 44.2443C84.0319 44.4124 84.3462 44.6097 84.6021 44.8363C84.858 45.0629 85.0591 45.3406 85.198 45.6659C85.3369 45.9911 85.4063 46.3858 85.4063 46.8499C85.4063 47.4456 85.3003 47.9462 85.081 48.3482C84.8653 48.7539 84.5802 49.0755 84.2256 49.3167C83.871 49.5578 83.4689 49.7333 83.023 49.8392C82.577 49.9452 82.1274 50 81.6778 50C81.3195 50 80.9503 49.9708 80.5738 49.916C80.1973 49.8612 79.8208 49.7808 79.4479 49.6784C79.0751 49.5761 78.7169 49.4555 78.3696 49.3167C78.026 49.1778 77.7043 49.0206 77.4082 48.8416L78.567 46.4552C78.8887 46.6599 79.225 46.8426 79.5759 46.9997C79.872 47.1386 80.2046 47.2629 80.5775 47.3761C80.9503 47.4894 81.3305 47.5442 81.718 47.5442C82.0141 47.5442 82.2188 47.504 82.3321 47.4273C82.4454 47.3469 82.5039 47.2446 82.5039 47.113C82.5039 46.9742 82.4454 46.8536 82.3321 46.7585C82.2151 46.6599 82.0579 46.5758 81.8569 46.4991C81.6522 46.426 81.4219 46.3492 81.1587 46.2762C80.8955 46.1994 80.6177 46.1117 80.3216 46.0094C79.8903 45.8595 79.5137 45.6988 79.203 45.527C78.8887 45.3552 78.6328 45.1615 78.4281 44.9423C78.227 44.723 78.0772 44.4745 77.9785 44.1968C77.8798 43.919 77.8322 43.5974 77.8322 43.2357C77.8322 42.6875 77.9309 42.2014 78.1283 41.7848C78.3257 41.3646 78.5962 41.0174 78.9362 40.7397C79.2761 40.4619 79.6673 40.25 80.1023 40.1038C80.5409 39.9613 81.0015 39.8882 81.4913 39.8882C81.8496 39.8882 82.2005 39.9247 82.5405 39.9942C82.8804 40.0636 83.2094 40.1513 83.5274 40.2573C83.8455 40.3633 84.1415 40.4802 84.4194 40.6081C84.6972 40.736 84.9457 40.853 85.1651 40.9626L84.0063 43.2101H84.0099Z" fill="white"/>
    <path d="M85.4059 35.2215L42.5348 0L30.947 9.56368L30.958 9.57099L0 35.1667H23.1755L42.564 19.0908L62.2267 35.2215H85.4059Z" fill="white"/>
    <path d="M89.8107 41.8397V41.8324C89.8107 41.5693 89.6206 41.4268 89.3026 41.4268H88.6775V42.249H89.3062C89.6133 42.249 89.8107 42.0882 89.8107 41.8397Z" fill="white"/>
    <path d="M89.8176 43.4844L89.2144 42.6292H88.6771V43.4844H88.2457V41.0359H89.3387C89.6458 41.0359 89.887 41.1272 90.0442 41.2807C90.1722 41.4123 90.2453 41.595 90.2453 41.8106V41.8179C90.2453 42.2199 90.004 42.4611 89.6641 42.5598L90.3257 43.488H89.8139L89.8176 43.4844ZM89.1157 39.9834C87.8619 39.9834 86.8457 40.9993 86.8457 42.2528C86.8457 43.5063 87.8619 44.5222 89.1157 44.5222C90.3696 44.5222 91.3858 43.5063 91.3858 42.2528C91.3858 40.9993 90.3696 39.9834 89.1157 39.9834Z" fill="white"/>
</svg>
